<svg width="124" height="29" viewBox="0 0 124 29" fill="none" xmlns="http://www.w3.org/2000/svg">
<path d="M26.7677 9.95001C27.1277 9.95001 27.2477 10.08 27.2477 10.43V18.35H31.3177C31.6677 18.35 31.7977 18.48 31.7977 18.83V19.53C31.7977 19.88 31.6677 20.01 31.3177 20.01H25.9577C25.6077 20.01 25.4677 19.88 25.4677 19.53V10.43C25.4677 10.08 25.6077 9.95001 25.9577 9.95001H26.7677Z" fill="#696871"/>
<path fill-rule="evenodd" clip-rule="evenodd" d="M39.3477 9.73999C36.8077 9.73999 35.3477 11.13 35.3477 13.44V16.52C35.3477 18.83 36.8177 20.22 39.3477 20.22C41.8777 20.22 43.3477 18.83 43.3477 16.52V13.44C43.3477 11.13 41.8877 9.73999 39.3477 9.73999ZM39.3977 11.44C40.8577 11.44 41.6677 12.14 41.6677 13.44V16.54C41.6677 17.82 40.8577 18.54 39.3977 18.54C37.9377 18.54 37.1377 17.85 37.1377 16.54V13.44C37.1377 12.15 37.9377 11.44 39.3977 11.44Z" fill="#696871"/>
<path d="M55.2577 14.5C55.6477 14.5 55.7377 14.63 55.7377 14.98V16.88C55.7592 17.7864 55.3695 18.6539 54.6777 19.24C53.8294 19.9155 52.7598 20.2507 51.6777 20.18C49.0877 20.18 47.6777 18.79 47.6777 16.48V13.38C47.6777 11.1 49.1377 9.70001 51.6777 9.70001C53.6777 9.70001 54.9777 10.49 55.5277 12.07C55.5901 12.1904 55.5921 12.3331 55.533 12.4552C55.474 12.5772 55.3608 12.6642 55.2277 12.69L54.4477 12.96C54.1077 13.08 53.9677 13.01 53.8477 12.66C53.507 11.7813 52.6133 11.2459 51.6777 11.36C50.2077 11.36 49.4077 12.07 49.4077 13.36V16.54C49.4077 17.85 50.2177 18.54 51.6777 18.54C53.1377 18.54 54.0377 17.87 54.0377 16.89V16.15H51.8677C51.5077 16.15 51.3777 16.01 51.3777 15.66V14.98C51.3777 14.63 51.5077 14.5 51.8677 14.5H55.2577Z" fill="#696871"/>
<path fill-rule="evenodd" clip-rule="evenodd" d="M63.8677 9.73999C61.3277 9.73999 59.8677 11.13 59.8677 13.44V16.52C59.8677 18.83 61.3377 20.22 63.8677 20.22C66.3977 20.22 67.8677 18.83 67.8677 16.52V13.44C67.8677 11.13 66.4077 9.73999 63.8677 9.73999ZM63.9177 11.44C65.3677 11.44 66.1777 12.14 66.1777 13.44V16.54C66.1777 17.82 65.3777 18.54 63.9177 18.54C62.4577 18.54 61.6477 17.85 61.6477 16.54V13.44C61.6477 12.15 62.4677 11.44 63.9177 11.44Z" fill="#696871"/>
<path d="M72.5776 10.24C72.5776 10.02 72.6476 9.95001 72.8676 9.95001H73.3276C73.5476 9.95001 73.5976 10.02 73.5976 10.24V19.72C73.5976 19.94 73.5976 20.01 73.3276 20.01H72.8676C72.6476 20.01 72.5776 19.94 72.5776 19.72V10.24Z" fill="#696871"/>
<path fill-rule="evenodd" clip-rule="evenodd" d="M85.8477 13.09C85.8477 11.3558 84.4419 9.95001 82.7077 9.95001H78.9777C78.7677 9.95001 78.6877 10.02 78.6877 10.24V19.72C78.6877 19.94 78.7677 20.01 78.9777 20.01H79.4477C79.6577 20.01 79.7077 19.94 79.7077 19.72V16.23H82.7077C84.4419 16.23 85.8477 14.8242 85.8477 13.09ZM84.5057 14.15C84.1163 14.8245 83.3966 15.24 82.6177 15.24H79.6177V10.88H82.6177C83.3966 10.88 84.1163 11.2955 84.5057 11.97C84.8951 12.6445 84.8951 13.4755 84.5057 14.15Z" fill="#696871"/>
<path d="M93.6577 9.75C95.2432 9.57503 96.7555 10.4613 97.3777 11.93C97.4577 12.09 97.3777 12.22 97.2177 12.3L96.7777 12.5C96.5977 12.57 96.5277 12.56 96.4177 12.37C95.9528 11.2808 94.8366 10.6175 93.6577 10.73C91.9677 10.73 91.0477 11.4 91.0477 12.6C91.0275 13.3583 91.5694 14.0155 92.3177 14.14C92.8556 14.3154 93.4132 14.4229 93.9777 14.46C94.6611 14.4964 95.3352 14.6346 95.9777 14.87C96.9931 15.1913 97.6441 16.1804 97.5377 17.24C97.5377 19.11 96.1777 20.24 93.6777 20.24C91.988 20.4333 90.3926 19.421 89.8477 17.81C89.812 17.7378 89.8104 17.6535 89.8432 17.58C89.8761 17.5065 89.9401 17.4515 90.0177 17.43L90.4577 17.27C90.5278 17.2414 90.6067 17.2435 90.6751 17.2758C90.7436 17.3081 90.7953 17.3677 90.8177 17.44C91.2768 18.5993 92.4339 19.3276 93.6777 19.24C95.5677 19.24 96.4977 18.58 96.4977 17.24C96.5341 16.5126 96.0392 15.8655 95.3277 15.71C94.8103 15.5557 94.2767 15.4617 93.7377 15.43L92.6577 15.29C92.3197 15.2183 91.9859 15.1281 91.6577 15.02C91.3336 14.9221 91.0314 14.7625 90.7677 14.55C90.2307 14.0637 89.9376 13.3639 89.9677 12.64C90.0377 10.89 91.3477 9.75 93.6577 9.75Z" fill="#696871"/>
<path d="M102.928 16.59C103.016 18.058 104.232 19.2034 105.703 19.2034C107.173 19.2034 108.39 18.058 108.478 16.59V10.24C108.478 10.02 108.548 9.95001 108.768 9.95001H109.228C109.448 9.95001 109.518 10.02 109.518 10.24V16.58C109.518 18.85 108.178 20.22 105.708 20.22C103.238 20.22 101.898 18.85 101.898 16.58V10.24C101.898 10.02 101.968 9.95001 102.178 9.95001H102.648C102.858 9.95001 102.928 10.02 102.928 10.24V16.59Z" fill="#696871"/>
<path d="M123.318 9.94998C123.538 9.94998 123.608 10.02 123.608 10.24V19.72C123.608 19.94 123.538 20.01 123.318 20.01H122.898C122.688 20.01 122.618 19.94 122.618 19.72V13.95C122.617 13.1104 122.674 12.2718 122.788 11.44H122.728C122.415 12.2007 122.051 12.9391 121.638 13.65L119.488 17.44C119.434 17.5746 119.303 17.6621 119.158 17.66H118.878C118.731 17.6607 118.597 17.5743 118.538 17.44L116.358 13.61C115.971 12.9092 115.636 12.1805 115.358 11.43H115.298C115.4 12.2695 115.454 13.1143 115.458 13.96V19.72C115.458 19.94 115.388 20.01 115.168 20.01H114.778C114.558 20.01 114.488 19.94 114.488 19.72V10.24C114.488 10.02 114.558 9.94998 114.778 9.94998H115.138C115.306 9.93427 115.466 10.0264 115.538 10.18L119.038 16.4L122.518 10.24C122.628 10.03 122.688 9.99998 122.908 9.99998L123.318 9.94998Z" fill="#696871"/>
<path fill-rule="evenodd" clip-rule="evenodd" d="M2.34768 0.93V21.24C2.34768 21.4893 2.24865 21.7284 2.07236 21.9047C1.89608 22.081 1.65698 22.18 1.40768 22.18H1.18768C0.668533 22.18 0.247681 21.7591 0.247681 21.24V0.93C0.253162 0.414762 0.672413 -2.91566e-05 1.18768 1.53718e-09H1.40768C1.92295 -2.91566e-05 2.3422 0.414762 2.34768 0.93ZM13.878 13.8046C14.0765 13.6156 14.3439 13.5163 14.6177 13.53L14.5677 13.55C14.8587 13.5203 15.1481 13.6195 15.3597 13.8215C15.5713 14.0234 15.6838 14.3079 15.6677 14.6V20.1C15.6677 20.6799 15.1976 21.15 14.6177 21.15C14.0378 21.15 13.5677 20.6799 13.5677 20.1V14.53C13.5673 14.2559 13.6795 13.9937 13.878 13.8046ZM16.8777 16.7C16.8777 16.1477 17.3254 15.7 17.8777 15.7C18.167 15.6734 18.4536 15.774 18.6629 15.9756C18.8722 16.1772 18.9834 16.4599 18.9677 16.75V17.96C18.9677 18.5371 18.4998 19.005 17.9227 19.005C17.3455 19.005 16.8777 18.5371 16.8777 17.96V16.7ZM8.97768 25.02V17.79C8.66497 18.0277 8.28032 18.1512 7.88768 18.14C7.52751 18.1311 7.17864 18.0125 6.88768 17.8V25.02C6.88768 25.5971 7.35554 26.065 7.93268 26.065C8.50982 26.065 8.97768 25.5971 8.97768 25.02ZM4.61768 20.53C4.25785 20.5192 3.90951 20.4008 3.61768 20.19V27.44C3.61768 28.0199 4.08778 28.49 4.66768 28.49C5.24758 28.49 5.71768 28.0199 5.71768 27.44V20.24C5.39113 20.4511 5.00584 20.5526 4.61768 20.53ZM11.2977 15.67C10.921 15.6674 10.5543 15.5487 10.2477 15.33V22.6C10.2477 23.1799 10.7178 23.65 11.2977 23.65C11.8776 23.65 12.3477 23.1799 12.3477 22.6V15.34C12.0304 15.5763 11.6432 15.6995 11.2477 15.69L11.2977 15.67ZM4.72768 19.76H4.50768C3.98853 19.76 3.56768 19.3391 3.56768 18.82V3.35C3.57316 2.83476 3.99241 2.41997 4.50768 2.42H4.72768C5.24295 2.41997 5.6622 2.83476 5.66768 3.35V18.84C5.66768 19.3591 5.24683 19.78 4.72768 19.78V19.76ZM7.80768 17.38H8.03768C8.55131 17.38 8.96768 16.9636 8.96768 16.45V5.75C8.96771 5.23473 8.55292 4.81548 8.03768 4.81H7.80768C7.55929 4.80999 7.32121 4.90934 7.14651 5.08592C6.97181 5.26249 6.87501 5.50162 6.87768 5.75V16.45C6.87768 16.9636 7.29406 17.38 7.80768 17.38ZM11.3477 14.93H11.1377C10.6224 14.93 10.2032 14.5152 10.1977 14V8.24C10.1811 7.98047 10.2727 7.72567 10.4509 7.53618C10.629 7.3467 10.8776 7.23947 11.1377 7.24H11.3577C11.8768 7.24 12.2977 7.66085 12.2977 8.18V13.98C12.3004 14.231 12.2025 14.4727 12.0259 14.6512C11.8493 14.8296 11.6087 14.93 11.3577 14.93H11.3477ZM14.4477 12.78H14.6677H14.6777C15.1929 12.7745 15.6077 12.3553 15.6077 11.84V10.35C15.6022 9.83476 15.1829 9.41997 14.6677 9.42H14.4477C13.9324 9.41997 13.5132 9.83476 13.5077 10.35V11.84C13.5077 12.3591 13.9285 12.78 14.4477 12.78Z" fill="#696871"/>
</svg>
