<svg width="200" height="40" viewBox="0 0 200 40" fill="none" xmlns="http://www.w3.org/2000/svg">
<path d="M30.0034 17.5548C28.8721 18.7128 28.3068 20.3233 28.4612 21.9484L28.4346 21.9214C28.5933 23.8337 27.9153 25.72 26.5814 27.077C25.2475 28.4341 23.3934 29.1239 21.5137 28.9625L21.5402 28.9895C19.2643 28.774 17.0999 30.0334 16.1287 32.1385C15.1574 34.2435 15.5878 36.7421 17.2048 38.3857C18.8218 40.0293 21.2782 40.4649 23.3464 39.4749C25.4147 38.4848 26.6507 36.2817 26.4368 33.9665L26.4648 33.9935C26.3061 32.0812 26.9842 30.1949 28.318 28.8379C29.6519 27.4808 31.506 26.791 33.3857 26.9524L33.3577 26.9254C35.859 27.1543 38.1865 25.6027 38.9788 23.1781C39.771 20.7536 38.8199 18.0931 36.6818 16.7529C34.5437 15.4126 31.7802 15.7447 30.0078 17.5548H30.0034Z" fill="#5454D4"/>
<path d="M19.1266 25.4524L19.0986 25.4254C20.6969 25.5892 22.2831 25.0142 23.4195 23.859C24.5558 22.7038 25.1222 21.0905 24.9624 19.4643L24.9904 19.4913C24.8317 17.5789 25.5098 15.6927 26.8437 14.3356C28.1775 12.9786 30.0316 12.2888 31.9113 12.4502L31.8833 12.4232C34.1594 12.6407 36.3251 11.3826 37.2979 9.27783C38.2706 7.17308 37.8415 4.67375 36.225 3.02915C34.6084 1.38456 32.1517 0.947964 30.0829 1.9376C28.0141 2.92724 26.7774 5.13053 26.9912 7.44615L26.9647 7.41765C27.1239 9.33013 26.446 11.2167 25.112 12.5739C23.778 13.9311 21.9236 14.6207 20.0437 14.4587L20.0702 14.4872C18.4719 14.3234 16.8857 14.8984 15.7494 16.0536C14.613 17.2088 14.0466 18.8221 14.2065 20.4483L14.1799 20.4213C14.3381 22.3335 13.6599 24.2195 12.3261 25.5764C10.9923 26.9333 9.13858 27.6233 7.25899 27.4624L7.28553 27.4894C5.00942 27.2719 2.84372 28.53 1.87097 30.6348C0.898222 32.7395 1.32737 35.2388 2.9439 36.8834C4.56043 38.528 7.01712 38.9646 9.08596 37.975C11.1548 36.9854 12.3914 34.7821 12.1777 32.4664L12.2057 32.4934C12.047 30.5811 12.725 28.6948 14.0589 27.3378C15.3928 25.9807 17.2469 25.2909 19.1266 25.4524V25.4524Z" fill="#FF7143"/>
<path d="M9.24503 22.4419C10.3765 21.2841 10.9414 19.6733 10.7858 18.0483L10.8138 18.0753C10.655 16.1624 11.3334 14.2756 12.668 12.9184C14.0026 11.5613 15.8575 10.8719 17.7377 11.0342L17.7097 11.0072C19.985 11.2241 22.1497 9.96613 23.1218 7.86205C24.094 5.75796 23.6649 3.25961 22.0489 1.61563C20.433 -0.0283556 17.9773 -0.464926 15.9091 0.524107C13.8409 1.51314 12.6044 3.71537 12.8176 6.03018L12.791 6.00318C12.9497 7.91553 12.2717 9.8018 10.9378 11.1588C9.60388 12.5159 7.7498 13.2057 5.87008 13.0443L5.89662 13.0713C3.39541 12.8431 1.06842 14.3951 0.276635 16.8196C-0.515153 19.2441 0.436243 21.9043 2.57438 23.2443C4.71252 24.5842 7.47576 24.252 9.24798 22.4419H9.24503Z" fill="#5454D4"/>
<path d="M54.9183 7.48071H59.2973V29.1605H54.9183V7.48071Z" fill="#19191B"/>
<path fill-rule="evenodd" clip-rule="evenodd" d="M66.5315 14.443C63.6417 15.6712 61.7648 18.5507 61.7773 21.7369C61.7621 23.8261 62.5733 25.8338 64.0284 27.3082C65.4834 28.7826 67.4601 29.5998 69.5136 29.576C72.6455 29.576 75.4683 27.6549 76.6639 24.71C77.8595 21.7651 77.1919 18.3774 74.973 16.1289C72.754 13.8804 69.4214 13.2149 66.5315 14.443ZM69.4514 18.4149C71.294 18.3803 72.8199 19.8627 72.8709 21.7368C72.9206 22.666 72.5861 23.5739 71.9484 24.2409C71.3107 24.9079 70.4279 25.2732 69.5136 25.2484C67.6707 25.2485 66.1719 23.7378 66.1548 21.863C66.1377 19.9882 67.6088 18.4495 69.4514 18.4149Z" fill="#19191B"/>
<path fill-rule="evenodd" clip-rule="evenodd" d="M94.7026 28.412V14.3118L90.44 14.3088V15.8238C89.4002 14.5294 87.8188 13.8132 86.1775 13.8933C82.1737 14.0217 78.9935 17.3609 78.9935 21.4361C78.9935 25.5114 82.1737 28.8505 86.1775 28.979C87.8188 29.0591 89.4002 28.3429 90.44 27.0484V28.406C90.5133 29.3016 90.1826 30.1826 89.5411 30.8006C88.8996 31.4185 88.0168 31.7063 87.1417 31.583C85.7576 31.7267 84.4311 30.9811 83.814 29.7125L80.0778 31.91C81.5395 34.3329 84.2092 35.7222 86.9958 35.51C90.8779 35.51 94.7026 33.401 94.7026 28.412ZM88.3606 18.0066C89.6779 18.611 90.5017 19.9695 90.4415 21.4384C90.4687 22.3869 90.1005 23.3028 89.4278 23.9601C88.7551 24.6173 87.8406 24.9545 86.9102 24.8885C85.4652 24.8902 84.1642 23.9979 83.6239 22.6344C83.0837 21.2709 83.4126 19.7101 84.4549 18.6918C85.4971 17.6735 87.0433 17.4023 88.3606 18.0066Z" fill="#19191B"/>
<path fill-rule="evenodd" clip-rule="evenodd" d="M101.937 14.443C99.047 15.6712 97.17 18.5507 97.1826 21.7369C97.1674 23.8261 97.9786 25.8338 99.4337 27.3082C100.889 28.7826 102.865 29.5998 104.919 29.576C108.051 29.576 110.874 27.6549 112.069 24.71C113.265 21.7651 112.597 18.3774 110.378 16.1289C108.159 13.8804 104.827 13.2149 101.937 14.443ZM104.857 18.4149C106.699 18.3803 108.225 19.8627 108.276 21.7368C108.326 22.666 107.991 23.5739 107.354 24.2409C106.716 24.9079 105.833 25.2732 104.919 25.2484C103.076 25.2485 101.577 23.7378 101.56 21.863C101.543 19.9882 103.014 18.4495 104.857 18.4149Z" fill="#19191B"/>
<path fill-rule="evenodd" clip-rule="evenodd" d="M116.319 7.86273C115.337 8.27646 114.697 9.25115 114.697 10.3323C114.712 11.8025 115.879 12.9907 117.325 13.0053C118.387 13.0053 119.345 12.3541 119.752 11.3552C120.159 10.3564 119.934 9.20665 119.182 8.44217C118.431 7.67769 117.301 7.449 116.319 7.86273ZM119.52 14.3118H115.14L115.134 29.162H119.52V14.3118Z" fill="#19191B"/>
<path fill-rule="evenodd" clip-rule="evenodd" d="M136.542 27.1323C137.851 25.6609 138.53 23.7191 138.428 21.7368C138.531 19.7542 137.853 17.8117 136.543 16.3399C135.233 14.8681 133.4 13.9885 131.451 13.8962C129.808 13.8051 128.212 14.4698 127.103 15.7067V14.3117H122.724V35.1005H127.103V27.7639C128.211 29.0018 129.808 29.6671 131.451 29.5759C133.4 29.4832 135.232 28.6037 136.542 27.1323ZM130.518 18.2917C132.425 18.2593 134.001 19.797 134.049 21.7368C134.115 22.7007 133.774 23.6476 133.111 24.3394C132.447 25.0312 131.526 25.4023 130.577 25.3593C128.67 25.3595 127.119 23.7953 127.103 21.855C127.087 19.9148 128.611 18.3242 130.518 18.2917Z" fill="#19191B"/>
<path d="M151.941 24.7055C151.941 28.121 149.023 29.576 145.871 29.576C143.265 29.8162 140.778 28.416 139.594 26.042L143.388 23.8444C143.704 24.9497 144.737 25.6798 145.865 25.5965C146.915 25.5965 147.441 25.2695 147.441 24.677C147.441 23.0419 140.259 23.9044 140.259 18.7669C140.259 15.5283 142.946 13.8963 145.982 13.8963C148.306 13.8215 150.486 15.0387 151.673 17.0734L147.937 19.1224C147.602 18.3272 146.832 17.8128 145.982 17.8159C145.222 17.8159 144.755 18.1159 144.755 18.6469C144.761 20.3404 151.941 19.2109 151.941 24.7055Z" fill="#19191B"/>
<path d="M167.937 14.3118V29.1619H163.558V27.7654C162.534 29.0154 160.982 29.6894 159.386 29.5774C156.437 29.5774 153.93 27.4399 153.93 23.4274V14.3118H158.309V22.7749C158.235 23.4907 158.474 24.2035 158.963 24.7236C159.453 25.2438 160.142 25.5186 160.848 25.4749C162.454 25.4749 163.563 24.5254 163.563 22.4164V14.3163L167.937 14.3118Z" fill="#19191B"/>
<path d="M193.047 20.0434V29.1605H188.668V20.4289C188.668 18.9439 187.967 17.9943 186.567 17.9943C185.107 17.9943 184.289 19.0339 184.289 20.7859V29.1605H179.911V20.4289C179.911 18.9439 179.211 17.9943 177.809 17.9943C176.349 17.9943 175.532 19.0339 175.532 20.7859V29.1605H171.153V14.3103H175.532V15.6753C176.454 14.4448 177.927 13.7744 179.444 13.8948C180.968 13.819 182.419 14.5627 183.267 15.8538C184.253 14.5041 185.852 13.7643 187.5 13.8948C190.851 13.8963 193.047 16.3308 193.047 20.0434Z" fill="#19191B"/>
<path d="M196.75 14.2204C198.545 14.2204 200 12.7402 200 10.9143C200 9.08844 198.545 7.60828 196.75 7.60828C194.956 7.60828 193.501 9.08844 193.501 10.9143C193.501 12.7402 194.956 14.2204 196.75 14.2204Z" fill="#19191B"/>
</svg>
