<svg width="119" height="24" viewBox="0 0 119 24" fill="none" xmlns="http://www.w3.org/2000/svg">
<path d="M38.6277 19.2047C38.0329 19.2369 37.4446 19.0678 36.9577 18.7247C36.5446 18.4185 36.309 17.9285 36.3277 17.4147V8.1447C36.3178 8.06517 36.3452 7.98554 36.4018 7.92888C36.4585 7.87221 36.5381 7.84484 36.6177 7.8547H38.2977C38.4877 7.8547 38.5777 7.9547 38.5777 8.1447V16.6947C38.5777 17.0747 38.7477 17.2647 39.0977 17.2647C39.246 17.2708 39.3944 17.254 39.5377 17.2147C39.7377 17.2147 39.8477 17.2747 39.8577 17.4547L40.0077 18.7047C40.0222 18.7784 40.0042 18.8549 39.9582 18.9143C39.9122 18.9737 39.8427 19.0103 39.7677 19.0147C39.3997 19.1362 39.0152 19.2003 38.6277 19.2047Z" fill="#696871"/>
<path fill-rule="evenodd" clip-rule="evenodd" d="M42.0776 18.1347C43.8189 19.5734 46.3364 19.5734 48.0776 18.1347V18.1247C49.5837 16.5541 49.5837 14.0754 48.0776 12.5047C46.3335 11.0739 43.8217 11.0739 42.0776 12.5047C40.5334 14.0637 40.5334 16.5758 42.0776 18.1347ZM46.5176 16.8147C45.7061 17.5499 44.4692 17.5499 43.6576 16.8147C42.9245 15.9718 42.9245 14.7176 43.6576 13.8747C44.4692 13.1396 45.7061 13.1396 46.5176 13.8747C47.2507 14.7176 47.2507 15.9718 46.5176 16.8147Z" fill="#696871"/>
<path fill-rule="evenodd" clip-rule="evenodd" d="M58.7377 11.9747C58.7377 11.7847 58.6477 11.6847 58.4577 11.6847L56.7977 11.6947C56.7198 11.6881 56.6431 11.717 56.5888 11.7732C56.5345 11.8294 56.5084 11.9071 56.5177 11.9847V12.1447C55.9074 11.6779 55.1557 11.4344 54.3877 11.4547C53.3341 11.4171 52.31 11.8066 51.5477 12.5347C50.0491 14.0851 50.0491 16.5443 51.5477 18.0947C52.3065 18.8295 53.3321 19.2231 54.3877 19.1847C55.1341 19.2059 55.8662 18.9771 56.4677 18.5347V19.1647C56.4881 19.628 56.3183 20.0796 55.9977 20.4147C55.6468 20.7349 55.182 20.9007 54.7077 20.8747C54.3185 20.8825 53.9336 20.7932 53.5877 20.6147C53.3038 20.4612 53.0866 20.2084 52.9777 19.9047C52.9226 19.7697 52.7934 19.6797 52.6477 19.6747H50.9677C50.6977 19.6747 50.6977 19.7647 50.6977 19.9647C50.8383 20.7841 51.3127 21.5083 52.0077 21.9647C52.8128 22.4866 53.7588 22.7484 54.7177 22.7147C55.7792 22.7615 56.8191 22.4041 57.6277 21.7147C58.3654 21.0686 58.773 20.1247 58.7377 19.1447V11.9747ZM55.9477 16.8147C55.601 17.2047 55.0992 17.4208 54.5777 17.4047C54.0505 17.4199 53.5429 17.2045 53.1877 16.8147C52.829 16.4029 52.6396 15.8705 52.6577 15.3247C52.6357 14.7735 52.8294 14.2354 53.1977 13.8247C53.5521 13.4338 54.0603 13.2181 54.5877 13.2347C55.1044 13.2176 55.6023 13.43 55.9477 13.8147C56.6315 14.6978 56.6315 15.9316 55.9477 16.8147Z" fill="#696871"/>
<path fill-rule="evenodd" clip-rule="evenodd" d="M61.3676 18.1347C63.1117 19.5656 65.6235 19.5656 67.3676 18.1347V18.1247C68.8736 16.5541 68.8736 14.0754 67.3676 12.5047C65.6221 11.0778 63.1131 11.0778 61.3676 12.5047C59.8602 14.0787 59.8602 16.5608 61.3676 18.1347ZM64.3776 17.3647C63.8434 17.3812 63.3248 17.1831 62.9376 16.8147C62.2172 15.9671 62.2172 14.7224 62.9376 13.8747C63.3248 13.5064 63.8434 13.3083 64.3776 13.3247C64.9083 13.311 65.4228 13.5089 65.8076 13.8747C66.5279 14.7224 66.5279 15.9671 65.8076 16.8147C65.4228 17.1806 64.9083 17.3785 64.3776 17.3647Z" fill="#696871"/>
<path fill-rule="evenodd" clip-rule="evenodd" d="M70.1976 9.98471C70.7444 10.4633 71.5609 10.4633 72.1076 9.98471C72.3499 9.75612 72.4872 9.43778 72.4872 9.10471C72.4872 8.77165 72.3499 8.45331 72.1076 8.22471C71.5562 7.75892 70.7491 7.75892 70.1976 8.22471C69.9554 8.45331 69.8181 8.77165 69.8181 9.10471C69.8181 9.43778 69.9554 9.75612 70.1976 9.98471ZM70.6476 18.7247C71.1359 19.065 71.7232 19.2339 72.3176 19.2047C72.7085 19.2011 73.0964 19.137 73.4676 19.0147C73.5427 19.0104 73.6121 18.9737 73.6582 18.9143C73.7042 18.8549 73.7222 18.7784 73.7076 18.7047L73.5576 17.4547C73.5476 17.2747 73.4376 17.2147 73.2376 17.2147C73.0909 17.2533 72.9393 17.2702 72.7876 17.2647C72.4476 17.2647 72.2776 17.0747 72.2776 16.6947V11.9747C72.2776 11.7847 72.1876 11.6847 71.9976 11.6847H70.3176C70.2381 11.6749 70.1585 11.7022 70.1018 11.7589C70.0451 11.8156 70.0178 11.8952 70.0276 11.9747V17.4147C70.01 17.926 70.2411 18.4142 70.6476 18.7247Z" fill="#696871"/>
<path fill-rule="evenodd" clip-rule="evenodd" d="M82.7476 12.5247C81.9797 11.7925 80.9478 11.4028 79.8876 11.4447C78.9618 11.4246 78.0685 11.7862 77.4176 12.4447C77.0742 11.7739 76.3583 11.3783 75.6076 11.4447C75.2396 11.438 74.8735 11.499 74.5276 11.6247C74.3827 11.6668 74.2869 11.8043 74.2976 11.9547V13.1347C74.2976 13.2947 74.4076 13.3747 74.6276 13.3747H74.9576C75.1202 13.3509 75.2845 13.4053 75.4008 13.5215C75.517 13.6378 75.5714 13.8021 75.5476 13.9647V22.1647C75.533 22.2426 75.5578 22.3225 75.6138 22.3785C75.6698 22.4345 75.7497 22.4593 75.8276 22.4447H77.5076C77.6976 22.4447 77.7976 22.3547 77.7976 22.1647V18.5547C78.4049 18.9932 79.1387 19.2214 79.8876 19.2047C80.9498 19.2475 81.9832 18.8536 82.7476 18.1147C84.2147 16.5402 84.2147 14.0993 82.7476 12.5247ZM79.7076 17.4042C79.1864 17.4042 78.6879 17.1913 78.3276 16.8147C77.9663 16.3887 77.7773 15.843 77.7976 15.2847C77.7743 14.7261 77.9637 14.1793 78.3276 13.7547C78.6879 13.3782 79.1864 13.1652 79.7076 13.1652C80.2287 13.1652 80.7273 13.3782 81.0876 13.7547C81.466 14.172 81.6637 14.7221 81.6376 15.2847C81.6605 15.8469 81.4632 16.3958 81.0876 16.8147C80.7273 17.1913 80.2287 17.4042 79.7076 17.4042Z" fill="#696871"/>
<path d="M88.5676 19.2047C87.6699 19.2416 86.7798 19.0269 85.9976 18.5847C85.3619 18.2018 84.935 17.5504 84.8376 16.8147C84.8376 16.6147 84.9076 16.5147 85.1276 16.5147H86.5976C86.7402 16.5203 86.8677 16.6052 86.9276 16.7347C87.1376 17.2747 87.6876 17.5447 88.5676 17.5447C88.8746 17.5587 89.1803 17.4969 89.4576 17.3647C89.6527 17.2766 89.7834 17.0883 89.7976 16.8747C89.7976 16.6147 89.6376 16.4347 89.3176 16.3147C88.9381 16.1884 88.5457 16.1045 88.1476 16.0647C87.6761 16.0113 87.2085 15.9278 86.7476 15.8147C86.2995 15.7133 85.892 15.4799 85.5776 15.1447C85.2035 14.6842 85.0373 14.089 85.1188 13.5012C85.2004 12.9135 85.5223 12.386 86.0076 12.0447C86.7284 11.5856 87.5741 11.3619 88.4276 11.4047C89.254 11.3768 90.0716 11.5812 90.7876 11.9947C91.372 12.3257 91.7761 12.9024 91.8876 13.5647C91.8876 13.7647 91.7976 13.8647 91.6176 13.8647H90.1376C90.0101 13.8723 89.891 13.8008 89.8376 13.6847C89.7388 13.4479 89.5526 13.2581 89.3176 13.1547C89.0526 13.0161 88.7567 12.9472 88.4576 12.9547C88.1645 12.9388 87.8721 12.9972 87.6076 13.1247C87.417 13.1983 87.2903 13.3804 87.2876 13.5847C87.3008 13.8654 87.4955 14.1048 87.7676 14.1747C88.1517 14.3194 88.5509 14.4201 88.9576 14.4747C89.4253 14.5363 89.8893 14.623 90.3476 14.7347C90.7958 14.8362 91.2033 15.0695 91.5176 15.4047C91.8573 15.7777 92.0337 16.271 92.0076 16.7747C92.0252 17.4779 91.6721 18.1386 91.0776 18.5147C90.3305 18.9943 89.455 19.235 88.5676 19.2047Z" fill="#696871"/>
<path d="M102.578 18.7047C102.589 18.7764 102.571 18.8497 102.528 18.9081C102.485 18.9664 102.42 19.0048 102.348 19.0147C101.982 19.1339 101.602 19.1979 101.218 19.2047C100.445 19.2847 99.686 18.9548 99.2176 18.3347C98.5112 18.942 97.5979 19.2536 96.6676 19.2047C95.7942 19.2449 94.9444 18.9145 94.3276 18.2947C93.7156 17.6458 93.3942 16.7756 93.4376 15.8847V11.9747C93.4376 11.7847 93.5276 11.6847 93.7176 11.6847H95.3976C95.5876 11.6847 95.6776 11.7847 95.6776 11.9747V15.5847C95.6593 16.0345 95.8131 16.4743 96.1076 16.8147C96.405 17.1302 96.8244 17.3016 97.2576 17.2847C97.7003 17.3041 98.1324 17.1456 98.4576 16.8447C98.7656 16.5273 98.9285 16.0965 98.9076 15.6547V11.9747C98.9076 11.7847 98.9976 11.6847 99.1876 11.6847H100.888C101.078 11.6847 101.168 11.7847 101.168 11.9747V16.6847C101.168 17.0747 101.338 17.2647 101.668 17.2647C101.823 17.2707 101.978 17.2538 102.128 17.2147C102.204 17.1932 102.286 17.208 102.351 17.2548C102.415 17.3015 102.454 17.3752 102.458 17.4547L102.578 18.7047Z" fill="#696871"/>
<path d="M118.468 18.7047C118.486 18.7772 118.47 18.854 118.426 18.914C118.381 18.974 118.312 19.0109 118.238 19.0147C117.866 19.1356 117.478 19.1996 117.088 19.2047C116.493 19.2354 115.905 19.0664 115.418 18.7247C114.989 18.4274 114.738 17.9359 114.748 17.4147V15.0647C114.769 14.6163 114.619 14.1766 114.328 13.8347C114.043 13.5182 113.632 13.3457 113.208 13.3647C112.824 13.3502 112.456 13.5124 112.208 13.8047C111.944 14.1398 111.809 14.5585 111.828 14.9847V18.6747C111.828 18.8647 111.738 18.9647 111.548 18.9647H109.858C109.778 18.9746 109.698 18.9472 109.642 18.8905C109.585 18.8339 109.558 18.7542 109.568 18.6747V15.0647C109.589 14.6212 109.451 14.1846 109.178 13.8347C108.931 13.5371 108.564 13.3649 108.178 13.3647C107.765 13.3481 107.365 13.5081 107.078 13.8047C106.792 14.1291 106.644 14.5528 106.668 14.9847V18.6747C106.677 18.7542 106.65 18.8339 106.593 18.8905C106.537 18.9472 106.457 18.9746 106.378 18.9647H104.748C104.558 18.9647 104.468 18.8647 104.468 18.6747V13.9647C104.491 13.8021 104.437 13.6377 104.321 13.5215C104.205 13.4053 104.04 13.3508 103.878 13.3747H103.548C103.328 13.3747 103.218 13.2947 103.218 13.1347V11.9547C103.207 11.8042 103.303 11.6668 103.448 11.6247C103.794 11.499 104.16 11.438 104.528 11.4447C105.249 11.3833 105.941 11.7411 106.308 12.3647C106.99 11.7183 107.91 11.385 108.848 11.4447C109.761 11.4001 110.642 11.7938 111.218 12.5047C111.888 11.7763 112.85 11.3873 113.838 11.4447C114.72 11.4034 115.58 11.7334 116.208 12.3547C116.822 13.0024 117.143 13.8734 117.098 14.7647V16.6947C117.098 17.0747 117.268 17.2647 117.588 17.2647C117.743 17.2719 117.898 17.2551 118.048 17.2147C118.254 17.2147 118.364 17.2947 118.378 17.4547L118.468 18.7047Z" fill="#696871"/>
<path fill-rule="evenodd" clip-rule="evenodd" d="M1.20761 10.3847C2.72569 4.28306 8.20493 0 14.4926 0C20.7803 0 26.2595 4.28306 27.7776 10.3847H26.5776C24.5533 10.3549 22.5705 10.9599 20.9076 12.1147C20.8116 12.1842 20.7114 12.2477 20.6076 12.3047H20.4676C20.3638 12.2477 20.2636 12.1842 20.1676 12.1147C16.7361 9.80724 12.2491 9.80724 8.81761 12.1147C8.72164 12.1842 8.62145 12.2477 8.51761 12.3047H8.37761C8.27377 12.2477 8.17357 12.1842 8.07761 12.1147C6.41474 10.9599 4.43193 10.3549 2.40761 10.3847H1.20761ZM24.4176 16.6547C25.0336 16.175 25.7971 15.924 26.5776 15.9447H28.1876V12.7347H26.5776C25.2028 12.7181 23.8595 13.146 22.7476 13.9547C21.4633 14.9016 19.712 14.9016 18.4276 13.9547C16.0926 12.3293 12.9926 12.3293 10.6576 13.9547C9.37326 14.9016 7.62195 14.9016 6.33761 13.9547C5.21201 13.1357 3.8494 12.7072 2.45761 12.7347H0.797607V15.9447H2.40761C3.18812 15.924 3.9516 16.175 4.56761 16.6547C6.89855 18.2813 9.99666 18.2813 12.3276 16.6547C12.9444 16.1765 13.7073 15.9257 14.4876 15.9447C15.2684 15.9223 16.0324 16.1735 16.6476 16.6547C18.9826 18.2801 22.0826 18.2801 24.4176 16.6547ZM26.5776 21.6847C25.7971 21.664 25.0336 21.915 24.4176 22.3947C22.0826 24.0201 18.9826 24.0201 16.6476 22.3947C16.0324 21.9135 15.2684 21.6623 14.4876 21.6847C13.7073 21.6657 12.9444 21.9165 12.3276 22.3947C9.99666 24.0213 6.89855 24.0213 4.56761 22.3947C3.9516 21.915 3.18812 21.664 2.40761 21.6847H0.797607V18.4747H2.45761C3.8494 18.4472 5.21201 18.8757 6.33761 19.6947C7.62195 20.6416 9.37326 20.6416 10.6576 19.6947C12.9926 18.0693 16.0926 18.0693 18.4276 19.6947C19.712 20.6416 21.4633 20.6416 22.7476 19.6947C23.8595 18.886 25.2028 18.4581 26.5776 18.4747H28.1876V21.6847H26.5776Z" fill="#696871"/>
</svg>
