<svg width="101" height="48" viewBox="0 0 101 48" fill="none" xmlns="http://www.w3.org/2000/svg">
<path d="M0.607666 28.61H3.60767V43.32H0.607666V28.61Z" fill="#696871"/>
<path fill-rule="evenodd" clip-rule="evenodd" d="M8.63718 33.3394C6.64209 34.1691 5.34361 36.1193 5.34765 38.28C5.33412 39.6995 5.8927 41.0646 6.89739 42.0674C7.90208 43.0702 9.26823 43.6262 10.6877 43.61C12.8484 43.61 14.7962 42.3079 15.6221 40.3112C16.4481 38.3146 15.9894 36.017 14.4601 34.4905C12.9307 32.9641 10.6323 32.5097 8.63718 33.3394ZM10.6487 36.0204C11.9219 35.9986 12.9747 37.0071 13.0077 38.28C13.0414 38.9105 12.8099 39.5263 12.3692 39.9784C11.9285 40.4305 11.3188 40.6777 10.6877 40.66C9.41426 40.6596 8.3792 39.6329 8.36851 38.3595C8.35782 37.0862 9.37548 36.0422 10.6487 36.0204Z" fill="#696871"/>
<path fill-rule="evenodd" clip-rule="evenodd" d="M28.0876 42.82V33.24L25.1376 33.27V34.27C24.4193 33.3939 23.3294 32.9083 22.1976 32.96C19.3699 32.96 17.0776 35.2523 17.0776 38.08C17.0776 40.9077 19.3699 43.2 22.1976 43.2C23.3304 43.2566 24.4223 42.77 25.1376 41.89V42.82C25.1957 43.438 24.9636 44.048 24.5093 44.471C24.0549 44.894 23.4299 45.082 22.8176 44.98C21.8783 45.0577 20.9865 44.5544 20.5676 43.71L17.9876 45.2C18.9961 46.8415 20.8364 47.7829 22.7576 47.64C25.4376 47.64 28.0876 46.21 28.0876 42.82ZM23.7028 35.7557C24.6105 36.1651 25.1784 37.085 25.1376 38.08C25.1562 38.7238 24.9016 39.3454 24.4367 39.7912C23.9718 40.2371 23.3401 40.4655 22.6976 40.42C21.7018 40.4192 20.8064 39.8133 20.4354 38.8892C20.0643 37.9651 20.2921 36.9082 21.0108 36.2189C21.7295 35.5297 22.795 35.3463 23.7028 35.7557Z" fill="#696871"/>
<path fill-rule="evenodd" clip-rule="evenodd" d="M33.1072 33.3394C31.1121 34.1691 29.8136 36.1193 29.8176 38.28C29.8041 39.6995 30.3627 41.0646 31.3674 42.0674C32.372 43.0702 33.7382 43.6262 35.1576 43.61C37.3184 43.61 39.2661 42.3079 40.0921 40.3112C40.918 38.3146 40.4593 36.017 38.93 34.4905C37.4007 32.9641 35.1023 32.5097 33.1072 33.3394ZM35.1187 36.0204C36.3919 35.9986 37.4447 37.0071 37.4776 38.28H37.4576C37.4911 38.9069 37.2622 39.5195 36.826 39.971C36.3897 40.4224 35.7853 40.672 35.1576 40.66C33.8842 40.6596 32.8492 39.6329 32.8385 38.3595C32.8278 37.0862 33.8454 36.0422 35.1187 36.0204Z" fill="#696871"/>
<path fill-rule="evenodd" clip-rule="evenodd" d="M43.7077 28.72C42.7025 28.72 41.8877 29.5348 41.8877 30.54C41.8932 31.5429 42.7048 32.3545 43.7077 32.36C44.7129 32.36 45.5277 31.5451 45.5277 30.54C45.5277 29.5348 44.7129 28.72 43.7077 28.72ZM45.1977 33.24H42.1977V43.32H45.1977V33.24Z" fill="#696871"/>
<path fill-rule="evenodd" clip-rule="evenodd" d="M56.9817 41.9458C57.8846 40.9452 58.3511 39.6258 58.2777 38.28C58.3484 36.9359 57.8807 35.619 56.978 34.6206C56.0753 33.6222 54.8121 33.0246 53.4677 32.96C52.3349 32.9056 51.2362 33.356 50.4677 34.19V33.24H47.4677V47.38H50.4677V42.38C51.2362 43.2139 52.3349 43.6644 53.4677 43.61C54.8139 43.5454 56.0787 42.9464 56.9817 41.9458ZM52.8582 35.9408C54.1678 35.9298 55.2445 36.9707 55.2777 38.28H55.2577C55.3052 38.9423 55.0641 39.5929 54.5965 40.0643C54.1289 40.5358 53.4803 40.7821 52.8177 40.74C51.5084 40.7068 50.4675 39.6301 50.4785 38.3205C50.4896 37.0108 51.5485 35.9519 52.8582 35.9408Z" fill="#696871"/>
<path d="M67.6176 40.3C67.6176 42.62 65.6176 43.61 63.4176 43.61C61.6197 43.7692 59.9055 42.8191 59.0876 41.21L61.7076 39.72C61.9268 40.4695 62.6387 40.9649 63.4176 40.91C64.1476 40.91 64.5076 40.68 64.5076 40.28C64.5076 39.17 59.5076 39.76 59.5076 36.28C59.5076 34.08 61.3676 32.97 63.5076 32.97C65.1158 32.9211 66.624 33.748 67.4476 35.13L64.8176 36.51C64.5803 35.9704 64.0471 35.6215 63.4576 35.62C62.9376 35.62 62.6176 35.82 62.6176 36.19C62.6576 37.34 67.6176 36.57 67.6176 40.3Z" fill="#696871"/>
<path d="M78.6577 33.24V43.32H75.6577V42.38C74.9498 43.2272 73.8792 43.6844 72.7777 43.61C70.7777 43.61 69.0077 42.16 69.0077 39.43V33.24H72.0077V38.99C71.9543 39.4862 72.127 39.9802 72.4779 40.335C72.8289 40.6899 73.3209 40.868 73.8177 40.82C74.9177 40.82 75.6877 40.18 75.6877 38.75V33.24H78.6577Z" fill="#696871"/>
<path d="M95.9976 37.14V43.32H92.9976V37.4C92.9976 36.4 92.5076 35.74 91.5476 35.74C90.5876 35.74 89.9676 36.45 89.9676 37.64V43.32H86.9676V37.4C86.9676 36.4 86.4876 35.74 85.5176 35.74C84.5476 35.74 83.9476 36.45 83.9476 37.64V43.32H80.9476V33.24H83.9476V34.17C84.5847 33.3355 85.6008 32.8801 86.6476 32.96C87.7001 32.9089 88.7023 33.4138 89.2876 34.29C89.9679 33.3745 91.0705 32.8723 92.2076 32.96C94.4876 32.96 95.9976 34.62 95.9976 37.14Z" fill="#696871"/>
<path d="M98.5576 33.18C99.7947 33.18 100.798 32.1771 100.798 30.94C100.798 29.7029 99.7947 28.7 98.5576 28.7C97.3205 28.7 96.3176 29.7029 96.3176 30.94C96.3176 32.1771 97.3205 33.18 98.5576 33.18Z" fill="#696871"/>
<path d="M34.5576 20.98C40.3511 20.98 45.0476 16.2835 45.0476 10.49C45.0476 4.69653 40.3511 0 34.5576 0C28.7642 0 24.0676 4.69653 24.0676 10.49C24.0676 16.2835 28.7642 20.98 34.5576 20.98Z" fill="#696871"/>
<path d="M58.0077 20.98C63.8012 20.98 68.4977 16.2835 68.4977 10.49C68.4977 4.69653 63.8012 0 58.0077 0C52.2142 0 47.5177 4.69653 47.5177 10.49C47.5177 16.2835 52.2142 20.98 58.0077 20.98Z" fill="#696871"/>
<rect x="0.627686" width="20.97" height="20.97" fill="#696871"/>
</svg>
