<svg width="128" height="30" viewBox="0 0 128 30" fill="none" xmlns="http://www.w3.org/2000/svg">
<path fill-rule="evenodd" clip-rule="evenodd" d="M75.6675 8.28671C75.0575 8.56275 74.6765 9.1819 74.7051 9.85085L74.7251 9.86085C74.7303 10.2834 74.9046 10.6863 75.209 10.9795C75.5134 11.2726 75.9226 11.4316 76.3451 11.4208C77.0146 11.4202 77.6166 11.0127 77.8658 10.3912C78.115 9.76974 77.9613 9.0592 77.4777 8.59619C76.994 8.13317 76.2775 8.01067 75.6675 8.28671ZM39.6751 9.03085H36.4651V22.0308H39.6751V9.03085ZM45.9551 11.9908C42.9551 11.9908 40.9551 13.9208 40.9551 17.1408C40.9551 20.4308 42.8851 22.3108 45.9551 22.3108C49.0251 22.3108 50.9551 20.3608 50.9551 17.1408C50.9551 13.9208 48.9551 11.9908 45.9551 11.9908ZM47.7751 17.1408C47.7751 15.3708 47.0851 14.3308 45.9851 14.3308C44.8851 14.3308 44.2051 15.3308 44.2051 17.1408C44.2051 18.9508 44.8851 19.9408 45.9851 19.9408C47.0851 19.9408 47.7951 18.9508 47.7951 17.1508L47.7751 17.1408ZM55.3351 22.7008H52.2351L52.2551 22.7108C52.4351 24.5008 54.2151 25.7708 56.9951 25.7808C60.0551 25.7808 62.1351 24.3108 62.1351 21.9608V12.2208H58.9551V13.8336C58.4121 12.7466 57.272 12.0752 56.0451 12.1408C53.5351 12.1408 52.0451 14.0608 52.0451 17.1408C52.0451 20.2208 53.6051 22.0108 55.9551 22.0108C57.2129 22.103 58.3983 21.4166 58.9451 20.2818V22.0608C58.9451 23.0408 58.3051 23.7008 57.0751 23.7008C56.3364 23.7955 55.6251 23.3867 55.3351 22.7008ZM58.9551 17.1408C58.9551 15.5708 58.2351 14.5808 57.0951 14.5808C55.9551 14.5808 55.2551 15.5808 55.2551 17.1408C55.2551 18.7008 55.9451 19.6208 57.0951 19.6208C58.2451 19.6208 58.9551 18.7708 58.9551 17.1408ZM68.4051 11.9908C65.4051 11.9908 63.4051 13.9208 63.4051 17.1408H63.4251C63.4251 20.4308 65.3451 22.3108 68.4051 22.3108C71.4651 22.3108 73.4051 20.3608 73.4051 17.1408C73.4051 13.9208 71.4051 11.9908 68.4051 11.9908ZM70.2251 17.1408C70.2251 15.3708 69.5251 14.3308 68.4351 14.3308C67.3451 14.3308 66.6551 15.3308 66.6551 17.1408C66.6551 18.9508 67.3351 19.9408 68.4351 19.9408C69.5351 19.9408 70.2451 18.9508 70.2451 17.1508L70.2251 17.1408ZM74.7051 12.2108H77.9551V22.0708H74.7551L74.7051 12.2108ZM85.7551 22.2108C88.2051 22.2108 89.6451 20.3508 89.6451 17.1408L89.7051 17.1508C89.7051 13.9308 88.2551 12.0808 85.7351 12.1008C84.4347 12.039 83.235 12.7988 82.7351 14.0008H82.6751V12.2408H79.4851V25.2408H82.6951V20.3808H82.7551C83.2726 21.5595 84.4703 22.2901 85.7551 22.2108ZM86.3751 17.1408C86.3751 15.5808 85.6451 14.5708 84.5151 14.5708C83.3851 14.5708 82.6751 15.5708 82.6651 17.1408C82.6551 18.7108 83.3851 19.7008 84.5151 19.7008C85.6451 19.7008 86.4351 18.7708 86.4351 17.1508L86.3751 17.1408ZM99.5051 15.2908C99.4851 13.2508 97.8151 11.9808 95.1251 11.9808L95.1851 11.9908C92.4751 11.9908 90.7951 13.2408 90.7351 15.2008C90.7351 16.7108 91.7451 17.7208 93.6751 18.1308L95.5351 18.5208C96.3051 18.6808 96.6051 18.7708 96.6051 19.3008C96.6051 19.8308 96.1651 20.1308 95.2251 20.1308C94.2851 20.1308 93.7051 19.7008 93.6151 18.9708H90.5051C90.6351 20.9808 92.4251 22.3008 95.1751 22.3008C97.9251 22.3008 99.7751 20.9408 99.7751 18.9408C99.7751 17.4508 98.9751 16.6508 96.9751 16.2308L94.9151 15.8108C94.1751 15.6608 93.8051 15.5008 93.8051 14.9908C93.8051 14.4808 94.2251 14.1408 95.1051 14.1408C95.9851 14.1408 96.5751 14.5808 96.5751 15.2908H99.5051ZM110.525 22.0608H107.415V20.2108H107.355C106.996 21.4819 105.804 22.3339 104.485 22.2608C103.507 22.2927 102.563 21.9056 101.889 21.197C101.214 20.4884 100.875 19.5257 100.955 18.5508V12.2208H104.165V17.8608C104.165 19.0208 104.775 19.6508 105.775 19.6508C106.25 19.6473 106.7 19.4382 107.008 19.0776C107.317 18.7171 107.455 18.2404 107.385 17.7708V12.2208H110.585L110.525 22.0608ZM115.195 12.2108H112.075L112.095 22.0708H115.305V16.2508C115.253 15.8415 115.381 15.4297 115.655 15.1212C115.929 14.8127 116.322 14.6376 116.735 14.6408C117.615 14.6408 118.105 15.1708 118.105 16.1708V22.0708H121.165V16.2308C121.11 15.8261 121.234 15.4174 121.505 15.1118C121.776 14.8062 122.167 14.6341 122.575 14.6408C123.485 14.6408 123.955 15.2008 123.955 16.2008V22.0708H127.185V15.3808C127.251 14.4948 126.936 13.6226 126.32 12.983C125.703 12.3434 124.843 11.9971 123.955 12.0308C122.597 11.9673 121.366 12.8249 120.955 14.1208H120.815C120.578 12.8217 119.391 11.9165 118.075 12.0308C116.774 12.0043 115.62 12.8591 115.265 14.1108H115.195V12.2108Z" fill="#696871"/>
<path fill-rule="evenodd" clip-rule="evenodd" d="M30.1151 9.88087C30.1153 5.80726 27.6153 2.15113 23.8192 0.673391C20.0231 -0.804353 15.7091 0.199264 12.9551 3.20087H0.475098V29.5409H26.8251V17.2309C28.9168 15.36 30.1132 12.6872 30.1151 9.88087ZM25.0451 9.88087C25.0491 11.8313 23.8774 13.5919 22.0766 14.3411C20.2758 15.0903 18.201 14.6804 16.8204 13.3027C15.4398 11.9249 15.0256 9.85099 15.771 8.04865C16.5165 6.24631 18.2747 5.07087 20.2251 5.07087C22.8832 5.07086 25.0396 7.22276 25.0451 9.88087ZM5.5451 24.4709H21.7551V19.6409C21.2493 19.7247 20.7377 19.7682 20.2251 19.7709C14.7653 19.7654 10.3406 15.3407 10.3351 9.88087C10.3395 9.34093 10.3897 8.80233 10.4851 8.27087H5.5451V24.4709Z" fill="#696871"/>
</svg>
